<?xml version="1.0" encoding="utf-8"?>
<!-- Generator: Adobe Illustrator 16.0.0, SVG Export Plug-In . SVG Version: 6.00 Build 0)  -->
<!DOCTYPE svg PUBLIC "-//W3C//DTD SVG 1.1//EN" "http://www.w3.org/Graphics/SVG/1.1/DTD/svg11.dtd">
<svg version="1.1" id="Layer_1" xmlns="http://www.w3.org/2000/svg" xmlns:xlink="http://www.w3.org/1999/xlink" x="0px" y="0px"
	 width="500px" height="300px" viewBox="0 0 500 300" enable-background="new 0 0 500 300" xml:space="preserve">
<path fill="#E24905" d="M26.595,137.857c0,0,109.611-167.199,271.397-106.036c0,0,13.666-27.849,37.341-29.821
	c11.176-0.932,26.021,2.632,33.333,9.333c8.181,7.497,12.417,22.458,10.334,31c-3.948,16.178-19.131,40.095,5.334,68.504
	c24.464,28.41,44.322,32.76,54.975,42.229c10.654,9.47,46.691,27.822,68.691,39.267l2.333,73.334c0,0-88.515-10.392-114.163-53.404
	c-25.648-43.012,8.876,68.547,14.793,82.357c5.92,13.812,10.452,22.38,10.452,22.38h-86.317c0,0-44.292-59.534-41.137-118.725
	C297.117,139.086,214.647,317,214.647,317H150.13l18.743-33.886c0,0-5.918-3.114-61.162,33.886H55.427
	c0,0,150.539-79.176,193.155-168.75C291.198,58.676,51.679,344.013,7.089,223.661C7.089,223.661-5.196,181.437,26.595,137.857z"/>
</svg>
